<svg xmlns="http://www.w3.org/2000/svg" width="1400" height="840" viewBox="0 0 1400 840">
  <defs><filter id="soft" x="-20%" y="-20%" width="140%" height="140%"><feDropShadow dx="0" dy="12" stdDeviation="18" flood-color="#6d5ef7" flood-opacity="0.10"/></filter><style>.t{font-family:Poppins,Inter,Arial,sans-serif;font-size:46px;font-weight:700;fill:#0f172a;letter-spacing:-1px}.p{font-family:Poppins,Inter,Arial,sans-serif;font-size:21px;font-weight:400;fill:#64748b}.h{font-family:Poppins,Inter,Arial,sans-serif;font-size:23px;font-weight:700;fill:#0f172a}.s{font-family:Poppins,Inter,Arial,sans-serif;font-size:16px;font-weight:500;fill:#64748b}.pill{font-family:Poppins,Inter,Arial,sans-serif;font-size:15px;font-weight:600;fill:#475569}.w{fill:#fff}.b{fill:#6d5ef7}</style></defs>
  <rect width="1400" height="840" rx="38" fill="#fff"/><rect x="56" y="54" width="1288" height="732" rx="34" fill="#f8fafc" stroke="#e2e8f0"/>
  <text x="96" y="118" class="t">One editor. Practice-aware blocks.</text><text x="98" y="158" class="p">The doctor keeps one familiar writing surface. Nimo changes the vocabulary around them.</text>
  <g filter="url(#soft)"><rect x="92" y="244" width="330" height="420" rx="30" fill="#fff"/><rect x="535" y="206" width="330" height="496" rx="32" fill="#fff"/><rect x="980" y="244" width="328" height="420" rx="30" fill="#fff"/></g>
  <text x="132" y="302" class="h">Practice type</text>
  <g transform="translate(132 338)"><rect width="220" height="42" rx="21" fill="#f4f2ff"/><text x="20" y="27" class="pill">Homeopathy</text><rect y="56" width="220" height="42" rx="21" fill="#fff5eb"/><text x="20" y="83" class="pill">Ayurveda</text><rect y="112" width="220" height="42" rx="21" fill="#f0fbf7"/><text x="20" y="139" class="pill">Physiotherapy</text><rect y="168" width="220" height="42" rx="21" fill="#f0f7ff"/><text x="20" y="195" class="pill">Allopathy</text><rect y="224" width="220" height="42" rx="21" fill="#f8fafc" stroke="#e2e8f0"/><text x="20" y="251" class="pill">Nutrition</text></g>
  <path d="M438 454 C475 454 488 454 518 454" stroke="#6d5ef7" stroke-width="5" fill="none" stroke-linecap="round"/><path d="M506 440 L528 454 L506 468" fill="none" stroke="#6d5ef7" stroke-width="5" stroke-linecap="round" stroke-linejoin="round"/>
  <text x="578" y="264" class="h">Nimo note editor</text><text x="580" y="300" class="s">A clean document with a slash menu.</text>
  <rect x="578" y="344" width="244" height="258" rx="24" fill="#f8fafc" stroke="#e2e8f0"/>
  <rect x="606" y="380" width="146" height="16" rx="8" fill="#0f172a" opacity="0.18"/><rect x="606" y="420" width="190" height="12" rx="6" fill="#64748b" opacity="0.20"/><rect x="606" y="444" width="160" height="12" rx="6" fill="#64748b" opacity="0.16"/>
  <rect x="606" y="492" width="188" height="52" rx="16" fill="#e9e5ff"/><text x="628" y="525" class="pill" fill="#6d5ef7">/ insert block</text>
  <rect x="616" y="626" width="166" height="42" rx="21" fill="#6d5ef7"/><text x="652" y="653" class="pill w">Same surface</text>
  <path d="M884 454 C920 454 935 454 966 454" stroke="#6d5ef7" stroke-width="5" fill="none" stroke-linecap="round"/><path d="M954 440 L976 454 L954 468" fill="none" stroke="#6d5ef7" stroke-width="5" stroke-linecap="round" stroke-linejoin="round"/>
  <text x="1020" y="302" class="h">Blocks offered</text>
  <g transform="translate(1020 338)"><rect width="222" height="58" rx="18" fill="#f4f2ff"/><text x="22" y="36" class="pill">Text: headings, lists</text><rect y="78" width="222" height="58" rx="18" fill="#fff5eb"/><text x="22" y="114" class="pill">Content: assessment</text><rect y="156" width="222" height="58" rx="18" fill="#f0fbf7"/><text x="22" y="192" class="pill">Record: Rx, labs</text><rect y="234" width="222" height="58" rx="18" fill="#f0f7ff"/><text x="22" y="270" class="pill">AI: draft, suggest</text></g>
  <rect x="96" y="714" width="1208" height="54" rx="27" fill="#0f172a"/><text x="140" y="749" class="pill w">Design principle: adapt the clinical vocabulary while keeping the mental model stable.</text>
</svg>