<svg fill="none" height="68" viewBox="0 0 128 68" width="128" xmlns="http://www.w3.org/2000/svg"><g clip-path="url(#eLnySg)"><path d="M57.343 23.843a33 33 0 0 0-1.114 4.535q-.177 1.024-.282 2.062c-.237 5.066.262 7.45.262 7.45.72 5.274 2.766 10.452 5.91 14.974 5.945 8.56 15.819 14.762 28.048 14.766 8.116 0 13.857-3.461 14.894-4.012l2.151 2.839H128l-9.23-12.849s6.255-8.165 6.279-18.802C125.101 13.91 110.464.342 90.046.31 78.22.29 68.185 6.062 62.086 14.505a33.6 33.6 0 0 0-4.743 9.338m48.776 14.533-1.773-2.396h-21.09l8.575 12.386c-8.925 1.749-17.359-5.725-17.234-14.408.124-8.873 7.284-15.518 15.851-15.461 9.395.064 18.774 10.199 15.671 19.879" fill="currentColor"/><path d="M62.09 14.48c-.212-.301-.43-.598-.655-.9C56.378 6.85 47.59.016 33.942 0 17.902-.02 5.524 10.706 1.439 23.831c-.048.157-.096.318-.14.475-.005.008-.005.016-.009.024A33.5 33.5 0 0 0 0 33.568a36.2 36.2 0 0 0 1.154 8.772c2.577 9.58 9.278 17.483 18.106 21.725.073.032.141.068.213.1q.066.029.137.064c4.454 2.026 9.455 3.156 14.77 3.196A34.13 34.13 0 0 0 61.749 53.38c.129-.177.25-.358.374-.535a33.6 33.6 0 0 0 3.039-5.322 33.5 33.5 0 0 0 3.023-13.93c0-1.78-.14-3.525-.406-5.23H36.62v15.86h8.591c0 .385-4.406 4.667-11.015 4.667-7.272 0-15.501-5.741-15.666-14.94-.173-9.527 8.072-15.77 15.666-15.5 6.167.22 8.523 1.981 11.964 5.37l10.034.008h1.158c4.527.004 8.824.004 9.35.004a20 20 0 0 0-.63-1.962c-.796-2.106-2.099-4.715-3.98-7.389" fill="currentColor"/></g><defs><clipPath id="eLnySg"><path d="M0 0h128v67.63H0z" fill="#fff"/></clipPath></defs></svg>
