<svg xmlns="http://www.w3.org/2000/svg" width="300" height="32" viewBox="0 0 258 26"><path d="M94.74 12.28V4.62h-.96V.25h7.5v4.36h-.87v20.37h-6.36a36.84 36.84 0 01-1.22-2.7s0-.09-.1-.09c-.43-.95-.86-2-1.3-2.96-.52-1.22-1.13-2.52-1.66-3.74-.08-.26-.26-.44-.43-.7v6.62h1.22v3.75h-7.67v-3.75h1.04V4.7h-.96V.35h6.37c.6 1.4 1.3 2.78 1.92 4.27 0 .08.08.17.08.26.44 1.04.88 2.09 1.31 3.04a67.82 67.82 0 001.66 3.66c.17.09.26.35.43.7zM0 .44h6.89c.26.52 4.62 11.23 4.62 11.32V4.88s-1.4 0-1.4-.09V.17l7.67.1.09 4.43h-.09v20.2H11.6c-.26-.6-4.7-11.23-5.05-11.49v8.01h.78v4.18H.35v-4.35h.7c.35 0 .35-.09.35-.44L1.3 4.96H0m154.7 5.75h5.33v-6.1h-1.22V.27h7.5v4.36h-.88v16.71h1.3v3.75h-7.92v-3.75h1.21v-7.05h-5.23v6.97h1.57v3.74h-7.93v-3.74h.87V4.53c-.34 0-.7 0-1.13-.09V.1h7.85v4.35c-.44 0-.79.09-1.22.09-.1 2.17-.1 4.18-.1 6.18zm39.14.17h2.97c.7 0 1.04-.34 1.04-1.04V4.96c0-.34-.09-.43-.43-.43h-3.05c-.35 0-.53.09-.53.52v5.83zm0 3.49v6.88h1.4v3.74h-7.85v-3.74h1.22V4.53h-1.13V.17h13.42c.79.1 1.31.53 1.83 1.14.53.7.7 1.39.7 2.26v7.58c0 .87-.26 1.3-1.22 1.74-.09 0-.09.09-.17.09.26.17.6.34.87.52.43.26.52.7.52 1.13v6.7h.96v3.75h-7.32v-3.75h.78v-5.66c0-.78-.35-1.22-1.04-1.22-1.05-.08-2-.08-2.97-.08zm-81.06.7c-.26-.7-.43-1.31-.7-2-.17-.62-.34-1.31-.52-1.92 0-.1-.17-.27-.26-.35-.08.08-.17.26-.26.35l-.26 1.04a51.68 51.68 0 01-.87 2.87h2.88zM114 18.9h-5.05c-.18.78-.44 1.56-.61 2.35h1.13v3.74h-8.28v-3.74h1.05c.35-1.14.6-2.27.96-3.4.26-.96.6-2 .87-2.96l.78-2.61c.26-.96.61-2 .88-2.96l.78-2.7c.17-.7.44-1.3.6-2h-.86V.25h9.93v4.36h-.87c.18.34.26.7.35 1.04.18.61.35 1.22.52 1.74.53 1.92 1.14 3.75 1.75 5.66.26.79.52 1.57.7 2.35.26.96.6 2 .87 2.96.26.79.52 1.57.7 2.35.17.62.17.62.78.62h.43v3.74h-7.84v-3.75h1.05c-.18-.87-.44-1.65-.61-2.43zm134.06 2.35h3.05c.87 0 1.22-.26 1.22-1.22V5.57c0-.7-.44-1.04-1.05-1.04h-3.14c-.08 5.66-.08 11.14-.08 16.72zM242.9 4.6h-1.56V.26h11.76c1.75 0 3.14.79 4.1 2.35.35.61.43 1.13.43 1.74V21c0 1.13-.34 2.09-.95 2.87-.61.78-1.4 1.3-2.53 1.3-4.01-.08-7.93 0-11.94-.08h-.44v-3.75h1.13V4.62zM30.24 14.9c-.52-1.65-1.04-3.3-1.65-4.96a146.78 146.78 0 00-1.4 4.96h3.05zM23.44.18h10.12v4.09h-.96c.08.43.26.87.35 1.22.08.17.17.43.26.6l1.3 4.27c.53 1.75 1.14 3.4 1.66 5.14l.79 2.35L38 21c0 .08.18.17.26.17h.44v3.75h-7.85v-3.75h1.4c-.26-.78-.44-1.57-.7-2.26 0-.1-.17-.1-.26-.1h-5.14c-.26.8-.44 1.58-.7 2.36h1.13v3.75h-7.75v-3.75h.87c.26 0 .43-.09.52-.35l.52-2.09c.26-1.04.61-2 .88-3.05l.78-2.87c.17-.78 2.1-7.49 2.35-8.27h-1.22c-.08-1.4-.08-2.87-.08-4.36zm193.24 15.58c-.52-1.83-1.05-3.57-1.57-5.4h-.09l-1.3 5.31c.96.1 1.91.1 2.96.1zm8.45 5.49v3.74h-7.58v-3.74h.79l-.53-2.1c0-.08-.17-.17-.26-.17h-4.53c-.18.7-.44 1.48-.61 2.18h1.04v3.75h-7.93v-3.75h1.05c.26 0 .35-.09.43-.35.35-1.4.7-2.7.96-4.1l.79-3.13c.26-1.13.52-2.26.87-3.4l.78-3.13c.26-.87.44-1.74.7-2.7h-1.13V0h10.54v4.35h-1.3c.08.35.26.61.35.87.43 1.66.87 3.23 1.39 4.88.26.87.52 1.74.78 2.53.27.95.53 1.91.88 2.87l.78 2.61c.26.87.52 1.66.7 2.53.09.26.17.35.52.35 0 .26.17.26.52.26zm-55.78 0h1.05V4.53h-1.57V.17h15.77v9.41h-5.31V4.62h-3.66v6.1h4.53v3.65h-4.53v6.96h4V15.6h5.06v9.58c-5.05-.18-10.2-.18-15.34-.18v-3.74zm-98.14-8.62v6.44c0 .44.17.78.52.96a3.6 3.6 0 002.53.17c.52-.17 1.05-.7 1.05-1.22V6.1c0-.18-.1-.44-.18-.61-.7-.87-1.57-1.22-2.61-.87-.79.26-1.31.7-1.31 1.65v6.36zm-5.4.17V4.8c0-.96.52-1.74 1.13-2.44A5.4 5.4 0 0168.86.87c.87-.35 1.74-.7 2.7-.7 1.48.1 3.05 0 4.53.1.26 0 .61.16.87.34.79.43 1.57.87 2.18 1.48.78.87 1.48 1.74 1.48 3.05V20.9c0 1.74-.96 2.87-2.44 3.57-.96.52-2 .7-3.14.6h-4.18a5.4 5.4 0 01-4.1-1.73 3.7 3.7 0 01-1.04-2.53c.09-2.7.09-5.31.09-8zM48.2 21.25h1.48v3.74h-8.63v-3.74h1.4V4.53h-1.4v4.96H36V.1h18.65v9.4h-4.97V4.53h-1.57c.09 5.57.09 11.14.09 16.72zm187.74-5.92h5.23v9.75H226.1v-3.75h.79V4.62h-1.57V.25h8.54v4.36h-1.3v16.71h3.4v-6zm-106.86 5.92h3.66v-5.23h5.23v9.06h-15.51v-3.75h.96V4.62h-1.05V.25h7.67v4.36h-.96v16.63zm-73.3 3.74v-3.74h1.05V4.53h-1.05V.17h7.93v4.36h-1.13v16.72h1.13v3.74h-7.93z" fill="currentColor" fill-rule="evenodd"/></svg>
