<svg fill="none" height="58" viewBox="0 0 292 58" width="292" xmlns="http://www.w3.org/2000/svg"><path d="M17.764 28.773 24.9.53H34.92L18.064 58h-1.209L0 .53h10.326zM64.224.076h.005L82.07 27.86V.53h9.49V58h-.76L72.12 28.926V57.47H62.48V0zm-3.79 57.394h-10.25l-1.82-6.301H37.205l-1.668 6.3h-9.942L42.364 0h1.214zm46.996 0H96.951V.53h10.479zm49.801-35.605L163.226.53h10.25l-11.311 35.68v21.26h-10.478V36.518L140.223.53h11.086zM242.72 57.47h-10.249l-1.822-6.301h-11.157l-1.668 6.3h-9.942L224.649 0h1.215zm12.524 0h-10.478V.53h10.478zM138.325 9.336h-8.428v48.128h-10.479V9.336h-8.346V.53h27.253zm73.795 0h-13.667V23.91h12.07v8.806h-12.07v24.747h-10.479V.53h24.146zM273.309.53c10.478 0 16.703 6.684 16.703 15.713 0 7.898-3.643 12.448-8.505 15.03l9.565 26.19H280.14l-9.566-27.328v27.329h-10.478V.53zM39.323 42.741h6.836l-3.418-14.045zm182.286 0h6.836l-3.418-14.045zm48.97-16.02c5.617-.53 9.336-3.494 9.336-9.865 0-4.857-2.882-7.667-7.437-7.668h-1.899z" fill="currentColor"/></svg>
